<?xml version="1.0" encoding="UTF-8"?> <svg xmlns="http://www.w3.org/2000/svg" width="194" height="57" viewBox="0 0 194 57" fill="none"><g clip-path="url(#clip0_13175_26750)"><path d="M52.9824 37.4492C52.9824 40.0409 50.8813 42.1412 48.2896 42.1412C47.8415 42.1412 47.4085 42.079 46.9983 41.9616C46.2337 44.8069 43.636 46.9006 40.5504 46.9006C39.3428 46.9006 38.2097 46.5798 37.2334 46.0195C35.7057 48.2257 33.1574 49.6722 30.272 49.6722C28.9782 49.6722 27.7516 49.3818 26.6555 48.8608C25.5586 49.3818 24.3329 49.6722 23.0391 49.6722C20.1528 49.6722 17.6045 48.2257 16.0776 46.0195C15.1005 46.5798 13.9683 46.9006 12.7606 46.9006C9.6742 46.9006 7.07735 44.8069 6.31197 41.9616C5.90255 42.079 5.4693 42.1412 5.02146 42.1412C2.42893 42.1412 0.328639 40.0409 0.328639 37.4492C0.328639 34.8575 2.42893 32.7556 5.02146 32.7556C5.25535 32.7556 5.48492 32.7729 5.71059 32.8064C5.681 32.556 5.66538 32.3001 5.66538 32.0426C5.66538 28.6746 8.19398 25.8984 11.4561 25.5079C11.7153 25.4766 11.9796 25.461 12.247 25.461C13.5811 25.461 14.8231 25.8581 15.8594 26.5398C17.3525 24.1475 20.0108 22.5557 23.0391 22.5557C24.3329 22.5557 25.5586 22.8461 26.6555 23.3663C27.7516 22.8461 28.9782 22.5557 30.272 22.5557C33.3002 22.5557 35.9585 24.1473 37.4517 26.5398C38.488 25.8581 39.73 25.461 41.0641 25.461C41.5398 25.461 42.0035 25.512 42.4505 25.608C45.419 26.2439 47.6448 28.8832 47.6448 32.0426C47.6448 32.3001 47.6301 32.5562 47.6005 32.8064C47.8261 32.7727 48.0557 32.7556 48.2896 32.7556C50.8813 32.7556 52.9824 34.8567 52.9824 37.4492Z" fill="white"></path><g opacity="0.3"><path d="M52.9824 36.4216C52.9824 39.0133 50.8813 41.1136 48.2896 41.1136C47.8415 41.1136 47.4085 41.0513 46.9983 40.934C46.2337 43.7793 43.636 45.873 40.5504 45.873C39.3428 45.873 38.2097 45.5522 37.2334 44.9919C35.7057 47.198 33.1574 48.6445 30.272 48.6445C28.9782 48.6445 27.7516 48.3541 26.6555 47.8331C25.5586 48.3541 24.3329 48.6445 23.0391 48.6445C20.1528 48.6445 17.6045 47.198 16.0776 44.9919C15.1005 45.5522 13.9683 45.873 12.7606 45.873C9.6742 45.873 7.07735 43.7793 6.31197 40.934C5.90255 41.0513 5.4693 41.1136 5.02146 41.1136C2.42893 41.1136 0.328639 39.0133 0.328639 36.4216C0.328639 35.9801 0.38927 35.5528 0.503338 35.1475C1.05888 37.1198 2.8704 38.5655 5.02146 38.5655C5.46951 38.5655 5.90255 38.5032 6.31197 38.3858C7.07735 41.2312 9.67625 43.2118 12.7606 43.3249C15.4559 43.4235 17.4806 41.6771 18.4578 41.1167C18.9211 41.5993 17.9366 46.3675 22.9751 46.7625C25.3311 46.9473 26.5754 45.7546 27.0343 45.277C27.9074 46.0588 29.9736 46.5443 31.2665 46.4931C34.1912 46.3772 36.4787 44.4082 37.2338 42.4438C38.2101 43.004 39.3432 43.3249 40.5508 43.3249C43.6364 43.3249 46.2341 41.2312 46.9987 38.3858C47.4089 38.5032 47.8422 38.5655 48.29 38.5655C50.4404 38.5655 52.2528 37.1198 52.8081 35.1475C52.9222 35.5528 52.9828 35.9803 52.9828 36.4216H52.9824Z" fill="#650000"></path></g><path d="M30.2716 50C29.008 50 27.7923 49.7386 26.6555 49.2225C25.5179 49.7386 24.3018 50 23.0386 50C20.2533 50 17.6365 48.677 15.9798 46.4462C14.9904 46.959 13.8836 47.2289 12.7604 47.2289C9.70544 47.2289 7.00603 45.2412 6.08588 42.3564C5.73854 42.4314 5.38154 42.4695 5.02063 42.4695C2.25217 42.4695 0 40.2173 0 37.4488C0 34.6804 2.25217 32.4272 5.02063 32.4272C5.13039 32.4272 5.23993 32.4307 5.34845 32.4379C5.34085 32.3061 5.33715 32.174 5.33715 32.0422C5.33715 28.2323 8.43671 25.133 12.2464 25.133C13.4902 25.133 14.6979 25.4633 15.7593 26.0914C17.3988 23.6657 20.0957 22.2274 23.0384 22.2274C24.3016 22.2274 25.5177 22.4889 26.6553 23.0049C27.7921 22.4889 29.0078 22.2274 30.2714 22.2274C33.2139 22.2274 35.9111 23.6657 37.5506 26.0914C38.6119 25.4635 39.8196 25.133 41.0634 25.133C44.8733 25.133 47.9727 28.2325 47.9727 32.0422C47.9727 32.174 47.969 32.3061 47.9614 32.4379C48.0701 32.4309 48.1796 32.4272 48.2892 32.4272C51.0576 32.4272 53.3098 34.6798 53.3098 37.4488C53.3098 40.2179 51.0576 42.4695 48.2892 42.4695C47.9283 42.4695 47.5713 42.4314 47.2239 42.3564C46.3038 45.2412 43.6044 47.2289 40.5494 47.2289C39.4262 47.2289 38.3196 46.959 37.33 46.4462C35.6731 48.677 33.0563 50 30.2712 50H30.2716ZM26.6555 48.5325C26.7036 48.5325 26.7519 48.5432 26.7963 48.5644C27.8848 49.0815 29.0538 49.3438 30.2716 49.3438C32.9399 49.3438 35.4414 48.0312 36.9632 45.8325C37.0602 45.6923 37.2484 45.6498 37.3964 45.7347C38.3509 46.2828 39.4414 46.5726 40.5498 46.5726C43.4165 46.5726 45.9379 44.6415 46.6813 41.8763C46.7041 41.7912 46.7603 41.7191 46.8367 41.6757C46.9134 41.6323 47.0042 41.6219 47.0887 41.6459C47.4751 41.7569 47.8792 41.813 48.2894 41.813C50.6959 41.813 52.6538 39.8551 52.6538 37.4486C52.6538 35.0421 50.6959 33.0832 48.2894 33.0832C48.0723 33.0832 47.857 33.099 47.649 33.1303C47.5478 33.1455 47.4455 33.1126 47.3719 33.0415C47.2985 32.9704 47.2624 32.869 47.2743 32.7675C47.3022 32.5285 47.3166 32.2841 47.3166 32.0418C47.3166 28.5939 44.5116 25.7888 41.0636 25.7888C39.8375 25.7888 38.6507 26.1434 37.6315 26.814C37.5577 26.8625 37.4675 26.8791 37.381 26.8604C37.2947 26.8415 37.2197 26.7887 37.1728 26.7137C35.6759 24.3154 33.0961 22.8835 30.2716 22.8835C29.0538 22.8835 27.8846 23.1457 26.7963 23.6628C26.7071 23.7052 26.6037 23.7052 26.5147 23.6628C25.4254 23.1457 24.256 22.8835 23.0386 22.8835C20.2143 22.8835 17.6343 24.3154 16.1374 26.7137C16.0906 26.7887 16.0156 26.8417 15.9292 26.8604C15.8427 26.8791 15.7525 26.8625 15.6787 26.814C14.6595 26.1434 13.4728 25.7888 12.2466 25.7888C8.79865 25.7888 5.9936 28.5939 5.9936 32.0418C5.9936 32.2843 6.00778 32.5285 6.03594 32.7675C6.04786 32.869 6.01169 32.9704 5.93832 33.0415C5.86474 33.1126 5.76238 33.1453 5.66126 33.1303C5.45327 33.099 5.23788 33.0832 5.02084 33.0832C2.61431 33.0832 0.656456 35.0415 0.656456 37.4486C0.656456 39.8558 2.61431 41.813 5.02084 41.813C5.43107 41.813 5.83494 41.7567 6.22153 41.6459C6.30621 41.6219 6.39685 41.6323 6.47351 41.6757C6.55017 41.7191 6.60608 41.7912 6.62889 41.8763C7.37228 44.6415 9.8937 46.5726 12.7604 46.5726C13.8688 46.5726 14.9591 46.2828 15.9138 45.7347C16.0616 45.65 16.2501 45.6923 16.3471 45.8325C17.8686 48.031 20.3701 49.3438 23.0386 49.3438C24.256 49.3438 25.4254 49.0815 26.5147 48.5642C26.5593 48.543 26.6074 48.5325 26.6555 48.5325Z" fill="#650000"></path><g opacity="0.3"><path d="M42.4503 25.608C42.3133 26.7943 41.8251 27.9208 41.0318 28.8323C39.0151 31.1475 34.7299 34.5499 26.9581 34.5482C19.1868 34.5499 14.9016 31.1475 12.885 28.8323C12.0686 27.8945 11.5764 26.7312 11.4557 25.5079C11.7149 25.4766 11.9792 25.461 12.2466 25.461C13.5807 25.461 14.8227 25.8581 15.8589 26.5398C17.3521 24.1475 20.0104 22.5557 23.0386 22.5557C24.3324 22.5557 25.5582 22.8461 26.6551 23.3663C27.7512 22.8461 28.9778 22.5557 30.2716 22.5557C33.2998 22.5557 35.9581 24.1473 37.4513 26.5398C38.4876 25.8581 39.7296 25.461 41.0636 25.461C41.5394 25.461 42.0031 25.512 42.4501 25.608H42.4503Z" fill="#650000"></path></g><path d="M47.8537 37.4402C46.7913 39.515 45.2897 38.7118 45.2897 38.7118C43.7727 39.8989 42.341 38.304 42.341 38.304C42.341 38.304 41.6066 38.6101 40.8306 38.4008C39.6967 38.0964 39.3095 36.9749 39.0363 35.2807C38.9765 34.9132 38.7763 33.2912 37.5464 31.7816C36.5299 30.5345 34.8111 29.3638 31.8895 29.038L38.8304 23.222C40.2029 23.3761 41.4065 23.683 42.4559 24.1097C49.035 26.777 49.5692 34.0919 47.8537 37.4402Z" fill="#D8A090"></path><path d="M44.1011 39.4786C43.3349 39.4786 42.6579 39.0641 42.2504 38.6801C41.9458 38.7681 41.3606 38.8836 40.7451 38.7182C39.3117 38.333 38.9547 36.8349 38.712 35.3335L38.7019 35.2692C38.3998 33.3152 37.1081 29.9499 31.8531 29.3644C31.6731 29.3442 31.5432 29.1821 31.5633 29.0018C31.5835 28.8218 31.7456 28.6927 31.9259 28.712C34.6744 29.0183 36.7286 30.0823 38.0317 31.8745C39.0597 33.2883 39.2786 34.7038 39.3506 35.1689L39.36 35.2287C39.6642 37.1103 40.0711 37.8576 40.9155 38.0843C41.569 38.2598 42.2093 38.0033 42.2156 38.0007C42.3441 37.9483 42.4927 37.9816 42.5852 38.0847C42.6351 38.1396 43.8342 39.4338 45.0879 38.4537C45.1902 38.3735 45.3302 38.3616 45.4449 38.4228C45.4599 38.4306 45.8742 38.6384 46.3831 38.4746C46.8375 38.3285 47.2342 37.93 47.5618 37.2904C48.5886 35.2863 48.7818 31.6817 47.1647 28.6699C46.0746 26.6395 43.7374 24.1029 38.794 23.5477C38.614 23.5276 38.4843 23.3652 38.5046 23.185C38.5248 23.0049 38.6873 22.8755 38.8674 22.8956C44.0935 23.4824 46.5786 26.1906 47.7431 28.3594C49.5474 31.7199 49.2167 35.4998 48.1461 37.5896C47.7326 38.3967 47.2019 38.9064 46.5687 39.1044C46.045 39.2682 45.5861 39.1699 45.3357 39.0846C44.9171 39.3676 44.4972 39.4784 44.1011 39.4784V39.4786Z" fill="#650000"></path><path d="M22.0147 29.0382C19.0972 29.364 17.3792 30.5314 16.3619 31.7769C15.1279 33.2881 14.9269 34.9126 14.8679 35.2809C14.5939 36.9751 14.2075 38.0967 13.0736 38.401C12.2967 38.6103 11.5632 38.3042 11.5632 38.3042C11.5632 38.3042 10.1315 39.8991 8.61367 38.712C8.61367 38.712 7.11311 39.5152 6.04971 37.4404C4.33335 34.0897 4.86916 26.7673 11.4604 24.1041C12.5066 23.6807 13.706 23.3755 15.0728 23.2222L22.0145 29.0382H22.0147Z" fill="#D8A090"></path><g opacity="0.3"><path d="M22.0147 29.0382C19.0972 29.364 17.3792 30.5314 16.3619 31.7769C15.1279 33.2881 14.9269 34.9126 14.8679 35.2809C14.5939 36.9751 14.2075 38.0967 13.0736 38.401C12.2967 38.6103 11.5632 38.3042 11.5632 38.3042C11.5632 38.3042 10.1315 39.8991 8.61367 38.712C8.61367 38.712 7.11311 39.5152 6.04971 37.4404C5.78068 36.9153 5.56652 36.2925 5.42367 35.6059C5.46971 35.7101 5.51719 35.8102 5.56734 35.9078C6.63053 37.9826 8.1313 37.1794 8.1313 37.1794C9.64912 38.3665 11.0808 36.7716 11.0808 36.7716C11.0808 36.7716 11.8144 37.0776 12.5913 36.8684C13.7252 36.564 14.1115 35.4425 14.3855 33.7483C14.3859 33.7452 14.3865 33.7421 14.3869 33.7391C14.6591 32.0175 14.1543 30.2574 12.9943 28.9564C12.9571 28.9147 12.9205 28.8732 12.8847 28.8323C11.8797 27.6778 11.3661 26.1806 11.4317 24.6512C11.4399 24.4658 11.4498 24.2829 11.4604 24.1039C12.5066 23.6805 13.706 23.3753 15.0728 23.222L20.3999 27.6852L22.0145 29.0382H22.0147Z" fill="#650000"></path></g><g opacity="0.3"><path d="M31.8895 29.0382C34.807 29.364 36.525 30.5314 37.5423 31.7769C38.7763 33.2881 38.9773 34.9126 39.0363 35.2809C39.3103 36.9751 39.6967 38.0967 40.8306 38.401C41.6075 38.6103 42.341 38.3042 42.341 38.3042C42.341 38.3042 43.7727 39.8991 45.2905 38.712C45.2905 38.712 46.7911 39.5152 47.8545 37.4404C48.1235 36.9153 48.3377 36.2925 48.4805 35.6059C48.4345 35.7101 48.387 35.8102 48.3369 35.9078C47.2737 37.9826 45.7729 37.1794 45.7729 37.1794C44.2551 38.3665 42.8234 36.7716 42.8234 36.7716C42.8234 36.7716 42.0898 37.0776 41.3129 36.8684C40.1791 36.564 39.7927 35.4425 39.5187 33.7483C39.5183 33.7452 39.5177 33.7421 39.5173 33.7391C39.2451 32.0175 39.7499 30.2574 40.9099 28.9564C40.9471 28.9147 40.9837 28.8732 41.0195 28.8323C42.0245 27.6778 42.5381 26.1806 42.4725 24.6512C42.4643 24.4658 42.4545 24.2829 42.4438 24.1039C41.3976 23.6805 40.1982 23.3753 38.8314 23.222L33.5043 27.6852L31.8897 29.0382H31.8895Z" fill="#650000"></path></g><path d="M9.80286 39.4786C9.4068 39.4786 8.98712 39.3678 8.56825 39.0848C8.31792 39.1699 7.85897 39.2684 7.33529 39.1046C6.70206 38.9066 6.17138 38.3971 5.75786 37.5898C4.68706 35.5 4.35657 31.7199 6.1609 28.3596C7.32542 26.1908 9.81046 23.4824 15.0366 22.8958C15.2171 22.8751 15.379 23.0052 15.3994 23.1852C15.4195 23.3652 15.29 23.5278 15.11 23.548C10.1666 24.1029 7.82938 26.6397 6.73926 28.6701C5.12216 31.6819 5.31536 35.2867 6.34218 37.2906C6.67246 37.9351 7.07242 38.3347 7.53136 38.4781C8.03778 38.6364 8.45521 38.4251 8.45932 38.4228C8.574 38.3616 8.71397 38.3737 8.81632 38.4537C10.07 39.434 11.2693 38.1396 11.3197 38.0841C11.413 37.9814 11.5616 37.9476 11.6896 38.0011C11.6949 38.0033 12.3354 38.2598 12.9887 38.0843C13.8331 37.8574 14.24 37.1101 14.5442 35.2287L14.5536 35.1689C14.6256 34.7038 14.8445 33.2885 15.8725 31.8745C17.1758 30.0823 19.23 29.0183 21.9783 28.712C22.1584 28.6923 22.3207 28.8218 22.3409 29.0018C22.361 29.1819 22.2311 29.3442 22.0511 29.3644C16.7961 29.9499 15.5044 33.3153 15.2023 35.2692L15.1922 35.3335C14.9495 36.8349 14.5927 38.3332 13.1591 38.7182C12.5436 38.8838 11.9584 38.7681 11.6538 38.6801C11.2465 39.0639 10.5693 39.4784 9.80306 39.4786H9.80286Z" fill="#650000"></path><path d="M44.2271 7.89166C44.2121 7.82343 44.194 7.75683 44.1725 7.69189L44.1914 7.6886L44.2271 7.89166Z" fill="#4DA2FF"></path><path d="M19.7562 10.2073C19.7562 10.2073 19.3172 4.61555 15.4411 4.13913C12.3169 3.75521 9.66412 5.89044 10.0041 9.0011C10.4412 13.0029 14.2388 14.0723 14.2388 14.0723L19.7564 10.2073H19.7562Z" fill="#D8A090"></path><g opacity="0.3"><path d="M19.7562 10.2073L14.2388 14.0725C14.2388 14.0725 10.441 13.0027 10.0045 9.00131C9.95207 8.51811 9.97077 8.05855 10.053 7.62797C10.0626 7.68593 10.0729 7.74327 10.0838 7.8C10.6821 10.8883 14.3074 12.299 16.8841 10.4945L19.4822 8.67472C19.7046 9.55418 19.7562 10.2073 19.7562 10.2073Z" fill="#650000"></path></g><path d="M14.2388 14.4005C14.2094 14.4005 14.1794 14.3964 14.1498 14.3882C14.1097 14.3769 10.1338 13.2105 9.67769 9.03686C9.51697 7.56487 9.98105 6.2088 10.9846 5.21857C12.106 4.11221 13.7449 3.59983 15.481 3.81358C19.5761 4.31692 20.0645 9.94262 20.0832 10.1819C20.0973 10.3625 19.9625 10.5204 19.7819 10.5345C19.6012 10.5493 19.4433 10.4141 19.4288 10.2334C19.4244 10.1802 18.9634 4.90288 15.4008 4.4651C13.8651 4.27663 12.4231 4.72139 11.4454 5.68594C10.5876 6.5323 10.1913 7.69723 10.33 8.96575C10.737 12.6918 14.1814 13.7151 14.328 13.7568C14.502 13.8063 14.6034 13.9878 14.554 14.1619C14.5131 14.3064 14.3816 14.4007 14.2386 14.4007L14.2388 14.4005Z" fill="#650000"></path><path d="M17.5878 9.95783C17.5878 9.95783 17.3435 6.84511 15.1858 6.57998C13.4469 6.36623 11.9701 7.5548 12.1594 9.28637C12.4028 11.5139 14.5166 12.1091 14.5166 12.1091" fill="#FFA1A8"></path><path d="M17.5878 9.95824L15.0185 11.7576L14.5164 12.1093C14.5164 12.1093 12.4024 11.5137 12.1592 9.28617C11.9704 7.55501 13.4467 6.36603 15.186 6.57978C15.7989 6.65541 16.2575 6.96021 16.5993 7.35873C17.4629 8.36191 17.5876 9.95845 17.5876 9.95845L17.5878 9.95824Z" fill="#FF929F"></path><path d="M14.5166 12.4375C14.4872 12.4375 14.4574 12.4334 14.4276 12.4252C14.3327 12.3985 12.0976 11.7422 11.8333 9.32214C11.7389 8.45769 12.0123 7.66044 12.6032 7.07736C13.2592 6.43015 14.2155 6.13008 15.2259 6.25443C17.6222 6.54895 17.9041 9.79423 17.915 9.93235C17.9292 10.113 17.7942 10.2711 17.6135 10.2852C17.4333 10.3002 17.275 10.1646 17.2606 9.98414C17.2582 9.95331 17.0089 7.13511 15.1458 6.90595C14.3354 6.80647 13.5766 7.03913 13.064 7.54473C12.6188 7.98394 12.4133 8.59004 12.4856 9.25102C12.701 11.2233 14.5286 11.7714 14.6065 11.7938C14.7803 11.8438 14.8812 12.0252 14.8317 12.1991C14.7906 12.3434 14.6595 12.4375 14.5166 12.4377V12.4375Z" fill="#650000"></path><path d="M34.0153 10.2073C34.0153 10.2073 34.4543 4.61555 38.3303 4.13913C41.4546 3.75521 44.1073 5.89044 43.7674 9.0011C43.3302 13.0029 39.5327 14.0723 39.5327 14.0723L34.0151 10.2073H34.0153Z" fill="#D37C59"></path><path d="M34.0153 10.2073C34.0153 10.2073 34.4543 4.61555 38.3303 4.13913C41.4546 3.75521 44.1073 5.89044 43.7674 9.0011C43.3302 13.0029 39.5327 14.0723 39.5327 14.0723L34.0151 10.2073H34.0153Z" fill="#D8A090"></path><g opacity="0.3"><path d="M43.7672 9.00131C43.3306 13.0025 39.5329 14.0725 39.5329 14.0725L34.0155 10.2073C34.0155 10.2073 34.0671 9.55418 34.2894 8.67472L36.8875 10.4943C39.4642 12.2988 43.0895 10.8881 43.6878 7.79979C43.6987 7.74306 43.709 7.68572 43.7186 7.62776C43.8007 8.05855 43.8196 8.5179 43.7672 9.0011V9.00131Z" fill="#650000"></path></g><path d="M39.5327 14.4005C39.3894 14.4005 39.2577 14.306 39.217 14.1613C39.1679 13.9868 39.2694 13.8055 39.4439 13.7564C39.5898 13.7149 43.0342 12.6916 43.4412 8.96554C43.5799 7.69703 43.1837 6.53209 42.3258 5.68573C41.3481 4.72119 39.9061 4.27643 38.3704 4.4649C34.8078 4.90267 34.3466 10.18 34.3425 10.2332C34.3281 10.4139 34.1698 10.5489 33.9894 10.5343C33.8087 10.52 33.6739 10.3623 33.6881 10.1817C33.7068 9.94242 34.1951 4.31671 38.2903 3.81337C40.0263 3.60003 41.6652 4.11221 42.7866 5.21836C43.7902 6.20859 44.2545 7.56467 44.0935 9.03666C43.6375 13.2103 39.6617 14.3767 39.6217 14.388C39.5919 14.3964 39.5619 14.4003 39.5325 14.4003L39.5327 14.4005Z" fill="#650000"></path><path d="M36.1836 9.95783C36.1836 9.95783 36.428 6.84511 38.5856 6.57998C40.3246 6.36623 41.8013 7.5548 41.612 9.28637C41.3686 11.5139 39.2548 12.1091 39.2548 12.1091" fill="#FFA1A8"></path><path d="M36.1836 9.95824L38.7529 11.7576L39.255 12.1093C39.255 12.1093 41.3691 11.5137 41.6122 9.28617C41.8011 7.55501 40.3248 6.36603 38.5854 6.57978C37.9725 6.65541 37.514 6.96021 37.1722 7.35873C36.3086 8.36191 36.1838 9.95845 36.1838 9.95845L36.1836 9.95824Z" fill="#FF929F"></path><path d="M39.2548 12.4375C39.1115 12.4375 38.9798 12.343 38.9391 12.1983C38.89 12.0238 38.9915 11.8425 39.166 11.7934C39.2429 11.7712 41.0704 11.2233 41.2858 9.25082C41.3582 8.58984 41.1526 7.98374 40.7075 7.54452C40.1951 7.03893 39.4363 6.80627 38.6257 6.90574C36.7617 7.13491 36.5131 9.95537 36.5108 9.98393C36.4962 10.1644 36.3373 10.2986 36.1577 10.2848C35.9772 10.2704 35.8424 10.1128 35.8566 9.93214C35.8675 9.79423 36.1495 6.54874 38.5457 6.25422C39.5569 6.12967 40.5126 6.42995 41.1685 7.07715C41.7594 7.66024 42.0329 8.45748 41.9384 9.32193C41.6741 11.7418 39.4389 12.3983 39.344 12.425C39.3142 12.4334 39.2842 12.4373 39.2548 12.4373V12.4375Z" fill="#650000"></path><path d="M26.9583 32.0868C34.7297 32.0885 39.0154 28.6859 41.032 26.3707C42.0372 25.2166 42.5506 23.7194 42.4845 22.1902C42.2857 17.5985 41.0758 14.8864 38.7476 11.3593C33.1568 2.88973 20.7602 2.88973 15.1694 11.3593C12.8412 14.8864 11.6312 17.5985 11.4325 22.1902C11.3663 23.7194 11.8797 25.2166 12.885 26.3707C14.9014 28.6859 19.1871 32.0885 26.9585 32.0868H26.9583Z" fill="#D8A090"></path><path d="M26.9638 32.415C26.9605 32.415 26.9568 32.415 26.9529 32.415C18.9137 32.415 14.5335 28.7634 12.6373 26.5863C11.5782 25.3704 11.034 23.804 11.1045 22.1761C11.3092 17.4489 12.5947 14.664 14.8954 11.1785C17.5819 7.1086 22.0914 4.67885 26.9583 4.67885C31.8252 4.67885 36.3349 7.1086 39.0213 11.1785C41.322 14.664 42.6076 17.4489 42.8123 22.1761C42.8828 23.8042 42.3383 25.3704 41.2794 26.5863C39.3832 28.7634 35.0022 32.415 26.9638 32.415ZM26.9583 31.7588C26.9599 31.7592 26.9622 31.7588 26.9638 31.7588C34.7433 31.759 38.9615 28.2482 40.7845 26.1553C41.7324 25.0668 42.2197 23.6637 42.1566 22.2046C41.9585 17.6302 40.7093 14.9275 38.4736 11.5402C35.9088 7.65489 31.604 5.33531 26.9583 5.33531C22.3125 5.33531 18.0077 7.65489 15.4432 11.5402C13.2074 14.9273 11.9582 17.63 11.7601 22.2046C11.6968 23.6639 12.1841 25.0668 13.1322 26.1553C14.955 28.2482 19.1745 31.7588 26.9529 31.7588H26.9583Z" fill="#650000"></path><g opacity="0.3"><path d="M41.0318 26.3703C39.0156 28.6855 34.7299 32.0889 26.9581 32.0872C19.1871 32.0889 14.9016 28.6857 12.8845 26.3703C11.8797 25.2166 11.3661 23.719 11.4327 22.1898C11.4352 22.1356 11.4376 22.0813 11.4401 22.027C11.5264 23.3194 12.0258 24.5544 12.8845 25.5403C14.9016 27.8556 19.1873 30.7657 26.9581 30.764C34.7299 30.7657 39.0153 27.8556 41.0318 25.5403C41.8905 24.5544 42.3899 23.3194 42.4771 22.027C42.4795 22.0813 42.482 22.1356 42.4845 22.1898C42.551 23.719 42.0374 25.2166 41.0318 26.3703Z" fill="#650000"></path></g><path d="M30.9274 24.3275C30.9274 26.063 29.1467 27.4696 26.9503 27.4696C24.7538 27.4696 22.9731 26.0628 22.9731 24.3275C22.9731 22.5922 24.7538 21.7693 26.9503 21.7693C29.1467 21.7693 30.9274 22.592 30.9274 24.3275Z" fill="#F9D9C2"></path><path d="M29.2407 24.6379C29.112 25.3457 27.595 26.0835 26.9503 24.4484H26.9505C26.3057 26.0835 24.7887 25.3457 24.6601 24.6379" fill="#F9D9C2"></path><path d="M23.0596 6.02321C23.0596 6.02321 25.3216 2.83444 28.0472 2.37118C30.2934 1.98931 28.2108 4.40159 28.2108 4.40159C28.2108 4.40159 30.3129 2.7658 31.2768 3.47487C32.2307 4.17654 30.1729 5.19185 30.7727 5.91407C30.7727 5.91407 32.1968 7.02947 26.9583 7.763C21.7198 8.49653 23.0596 6.023 23.0596 6.023V6.02321Z" fill="#D8A090"></path><g opacity="0.5"><path d="M30.7591 5.89599C30.3924 5.41608 31.1611 4.81142 31.4392 4.25505C31.7976 4.74318 31.0372 5.34702 30.7591 5.89599Z" fill="white"></path></g><path d="M23.0594 6.35123C22.9936 6.35123 22.9275 6.3315 22.8697 6.2906C22.7219 6.18578 22.6872 5.98087 22.792 5.83309C22.8876 5.69827 25.1652 2.5278 27.9923 2.04727C28.2488 2.0037 29.0292 1.87113 29.3241 2.3942C29.4758 2.66324 29.4211 3.01017 29.2805 3.3534C30.0013 3.00606 30.8717 2.76929 31.4712 3.21035C31.691 3.3719 31.8192 3.56879 31.8529 3.79549C31.916 4.22093 31.6322 4.60054 31.3576 4.96741C31.0481 5.38114 30.9268 5.58584 31.0253 5.70423C31.141 5.84358 31.1218 6.05054 30.9825 6.16646C30.8432 6.28238 30.6362 6.26306 30.5203 6.12351C30.0747 5.58687 30.5125 5.00153 30.8321 4.57424C31.0078 4.33911 31.2267 4.04665 31.2036 3.89168C31.1967 3.84441 31.1558 3.79302 31.0824 3.73897C30.4605 3.28147 28.9073 4.27602 28.4122 4.66035C28.279 4.76373 28.0891 4.74935 27.973 4.62726C27.8568 4.50497 27.8521 4.31465 27.9623 4.18702C28.4564 3.6138 28.8477 2.88541 28.7523 2.71668C28.7377 2.69098 28.5852 2.61206 28.102 2.69448C25.5449 3.12917 23.349 6.18229 23.327 6.21312C23.2629 6.30314 23.1618 6.35123 23.0592 6.35123H23.0594Z" fill="#650000"></path><path d="M18.857 20.7106C18.8855 20.7252 18.9271 20.7565 18.9636 20.7789L19.0767 20.8531C19.1538 20.9005 19.2284 20.9497 19.3061 20.9932C19.4596 21.0822 19.6129 21.1622 19.7656 21.2273C20.0706 21.3605 20.3676 21.432 20.6451 21.4294C20.7844 21.4277 20.9205 21.4059 21.0582 21.3675C21.1279 21.3527 21.1957 21.3219 21.2666 21.2989C21.335 21.2649 21.407 21.2403 21.4766 21.199C21.7596 21.0512 22.0433 20.8372 22.3442 20.5999L22.3524 20.5933C22.5078 20.4706 22.7332 20.4971 22.8559 20.6527C22.9418 20.7616 22.9544 20.9051 22.9009 21.0232C22.7207 21.4199 22.4424 21.7868 22.0618 22.0819C21.6889 22.3808 21.1727 22.5762 20.6519 22.5762C20.1294 22.5764 19.6433 22.3951 19.2557 22.1395C19.0609 22.01 18.8849 21.8632 18.7295 21.7005C18.6533 21.6174 18.5779 21.5352 18.5109 21.4454C18.4774 21.4004 18.4441 21.3554 18.4124 21.3085C18.3804 21.2588 18.3534 21.2175 18.3179 21.1558C18.2217 20.9889 18.2788 20.7754 18.4459 20.6792C18.5514 20.6184 18.6753 20.619 18.7766 20.6695L18.8574 20.7106H18.857Z" fill="#650000"></path><path d="M35.5822 21.156C35.5467 21.2177 35.5199 21.2592 35.4877 21.3087C35.456 21.3556 35.4227 21.4004 35.3892 21.4456C35.322 21.5354 35.2468 21.6176 35.1705 21.7007C35.0152 21.8634 34.8392 22.0102 34.6444 22.1397C34.2566 22.3954 33.7707 22.5766 33.2482 22.5764C32.7274 22.5764 32.2111 22.381 31.8383 22.0821C31.4577 21.7868 31.1794 21.4199 30.9991 21.0235C30.9171 20.8432 30.9969 20.6305 31.1773 20.5487C31.3035 20.4913 31.4456 20.5131 31.5475 20.5933L31.5559 20.6001C31.8566 20.8374 32.1404 21.0514 32.4235 21.1992C32.4929 21.2403 32.5651 21.2652 32.6335 21.2991C32.7044 21.3221 32.772 21.3529 32.8419 21.3677C32.9796 21.4061 33.1157 21.4279 33.255 21.4296C33.5325 21.4322 33.8295 21.3607 34.1345 21.2275C34.2872 21.1624 34.4405 21.0822 34.594 20.9934C34.6717 20.9499 34.7461 20.9008 34.8234 20.8533L34.9366 20.7791C34.9732 20.7567 35.0148 20.7254 35.0433 20.7108L35.122 20.6708C35.2939 20.5832 35.5039 20.6517 35.5915 20.8235C35.6467 20.932 35.6385 21.0576 35.5828 21.1562L35.5822 21.156Z" fill="#650000"></path><path d="M28.503 23.2055C28.503 24.0632 26.9503 24.4484 26.9503 24.4484C26.9503 24.4484 25.3975 24.063 25.3975 23.2055C25.3975 22.7655 26.9507 22.7655 26.9507 22.7655C26.9507 22.7655 28.5032 22.7655 28.5032 23.2055H28.503Z" fill="#650000"></path><path d="M29.2407 24.6379C29.112 25.3457 27.595 26.0835 26.9503 24.4484H26.9505C26.3057 26.0835 24.7887 25.3457 24.6601 24.6379" fill="#F9D9C2"></path><path d="M26.9509 24.4486V24.4497L26.9498 24.4486H26.9509Z" fill="#F9D9C2"></path><path d="M29.4022 24.6673C29.3763 24.8317 29.3056 24.9772 29.2145 25.0985C29.1235 25.2207 29.0135 25.3247 28.891 25.4109C28.6459 25.5806 28.3439 25.6856 28.0235 25.6745C27.7027 25.6667 27.3843 25.519 27.1562 25.3054C26.9215 25.0933 26.7673 24.8309 26.645 24.5688C26.5715 24.4108 26.6399 24.2229 26.798 24.1493C26.846 24.1269 26.897 24.1177 26.9465 24.1201H26.9505V24.1203L26.9874 24.1224C27.1607 24.1314 27.2939 24.2794 27.2846 24.4529C27.2824 24.494 27.2719 24.5339 27.2557 24.569C27.1336 24.8311 26.9792 25.0935 26.7445 25.3056C26.5162 25.5192 26.198 25.6669 25.8772 25.6748C25.5568 25.6861 25.2548 25.5808 25.0097 25.4111C24.8872 25.3247 24.7772 25.2209 24.6862 25.0987C24.5951 24.9774 24.5244 24.8317 24.4985 24.6675C24.4843 24.5781 24.5454 24.494 24.635 24.48C24.7182 24.4669 24.7967 24.5189 24.8187 24.5984L24.8216 24.6089C24.8709 24.7912 25.0405 24.961 25.2294 25.0647C25.4213 25.1694 25.6414 25.2144 25.8381 25.1844C26.0359 25.1558 26.2062 25.0522 26.3402 24.8985C26.4767 24.747 26.5725 24.5427 26.6454 24.3285L26.9507 24.777L27.2559 24.3285C27.3288 24.5427 27.4246 24.747 27.5611 24.8985C27.6951 25.0522 27.8655 25.1556 28.0632 25.1844C28.2599 25.2144 28.48 25.1694 28.672 25.0647C28.8608 24.961 29.0304 24.7912 29.0797 24.6089L29.0824 24.5992C29.106 24.5119 29.1961 24.4601 29.2836 24.4837C29.365 24.5057 29.4153 24.5861 29.4028 24.6677L29.4022 24.6673Z" fill="#650000"></path><path d="M35.6879 17.1603C35.8436 16.9365 34.755 14.3543 32.8775 14.8311C32.1898 15.0058 32.2798 15.6103 32.6654 15.8154C33.0322 16.0106 33.612 16.0203 34.0841 16.2394C35.0043 16.6669 35.5321 17.3842 35.6879 17.1603Z" fill="#650000"></path><path d="M18.2118 17.1603C18.056 16.9365 19.1447 14.3543 21.0222 14.8311C21.7099 15.0058 21.6199 15.6103 21.2343 15.8154C20.8674 16.0106 20.2877 16.0203 19.8156 16.2394C18.8954 16.6669 18.3676 17.3842 18.2118 17.1603Z" fill="#650000"></path><path d="M15.8834 45.7544C15.9442 45.7117 16.0215 45.6533 16.0895 45.5959C16.1602 45.5394 16.2283 45.4774 16.2975 45.4171C16.433 45.2926 16.5651 45.1629 16.6913 45.0273C16.9443 44.7562 17.1776 44.4639 17.3825 44.1523C17.5889 43.842 17.7749 43.5158 17.9243 43.1722C18.0838 42.8324 18.1954 42.4727 18.2971 42.11L18.2994 42.1016C18.3238 42.0144 18.4143 41.9634 18.5016 41.9879C18.5849 42.0113 18.6348 42.0952 18.6179 42.1784C18.539 42.5659 18.4476 42.9543 18.3045 43.3261C18.1717 43.7016 17.9989 44.0629 17.8016 44.4105C17.6059 44.7592 17.3782 45.0904 17.1256 45.403C16.9996 45.5596 16.866 45.7106 16.7271 45.8576C16.6556 45.9297 16.5857 46.0029 16.5103 46.0726C16.4348 46.1447 16.3631 46.209 16.2708 46.2841C16.13 46.3985 15.9231 46.3772 15.8088 46.2364C15.6943 46.0956 15.7157 45.8886 15.8565 45.7741C15.8622 45.7694 15.868 45.7651 15.8739 45.7608L15.8832 45.7542L15.8834 45.7544Z" fill="#650000"></path><path d="M24.7273 40.1628C24.8068 39.9799 24.8699 39.7851 24.977 39.6128C25.0275 39.5253 25.0719 39.4328 25.1307 39.35L25.3077 39.1009C25.3644 39.0154 25.4394 38.9453 25.5054 38.867L25.6079 38.7523C25.6421 38.7138 25.6821 38.6818 25.7191 38.6462C25.7952 38.5776 25.8688 38.5052 25.9477 38.4393L26.196 38.2557C26.8709 37.7822 27.6967 37.5179 28.5285 37.5099C28.9435 37.5066 29.3623 37.5582 29.7588 37.6827L29.9086 37.7251L30.0531 37.783C30.1491 37.8225 30.2455 37.8605 30.3402 37.9018C30.5268 37.9914 30.7085 38.0913 30.8795 38.2074C31.5666 38.6672 32.1012 39.3434 32.371 40.1014C32.4017 40.1871 32.3569 40.2812 32.2712 40.3118C32.1955 40.3388 32.1133 40.3071 32.0741 40.2405L32.0734 40.2393C31.6967 39.6005 31.178 39.0711 30.562 38.7106C30.4064 38.6234 30.2496 38.5396 30.0852 38.4711L29.8346 38.3807L29.7095 38.3359L29.581 38.3022C29.2419 38.1972 28.8859 38.1694 28.534 38.1624L28.2689 38.1688L28.0056 38.2011C27.9171 38.2072 27.8316 38.2323 27.7448 38.2494C27.6585 38.2687 27.5699 38.2806 27.4863 38.3108L27.2316 38.3891L26.9854 38.4913C26.9017 38.5225 26.8236 38.5655 26.7445 38.6066C26.6664 38.6493 26.5828 38.6836 26.5102 38.736C26.2011 38.9175 25.9273 39.1539 25.6737 39.4116C25.4207 39.6726 25.2177 39.9772 25.0271 40.296L25.0177 40.312C24.9712 40.3895 24.8709 40.4148 24.7934 40.3683C24.7221 40.3256 24.695 40.237 24.7275 40.1628H24.7273Z" fill="#650000"></path><path d="M29.7555 37.9296C30.0134 37.1446 30.5959 36.4547 31.3444 36.0457C31.7183 35.8416 32.1298 35.6971 32.5554 35.6424C32.98 35.5816 33.4133 35.6022 33.8336 35.687C34.6742 35.8665 35.4367 36.3562 35.9538 37.0271C36.4717 37.6998 36.7264 38.556 36.6711 39.3769C36.6649 39.4675 36.5866 39.536 36.496 39.53C36.414 39.5245 36.3503 39.4599 36.3433 39.3806V39.3771C36.2767 38.6312 35.9931 37.9263 35.5164 37.3831C35.2791 37.112 34.9977 36.884 34.6915 36.7028C34.3836 36.524 34.0486 36.3949 33.7014 36.3219L33.4384 36.2827C33.3948 36.2742 33.3504 36.2722 33.306 36.2712L33.173 36.2654C33.0844 36.2584 32.9959 36.2615 32.9071 36.2648C32.8181 36.264 32.7303 36.2783 32.6419 36.2862C32.2901 36.3299 31.945 36.4311 31.6237 36.5868C31.3015 36.74 30.9991 36.9434 30.7367 37.195C30.473 37.4453 30.2459 37.7382 30.056 38.0619L30.0541 38.065C30.0081 38.1435 29.9072 38.1698 29.8287 38.1238C29.7604 38.0837 29.7317 38.0023 29.7555 37.9302V37.9296Z" fill="#650000"></path></g><path d="M81.7309 11.656C82.1788 11.656 82.4882 11.976 82.6588 12.616C82.5309 14.7707 82.3922 16.3067 82.2428 17.224C82.0935 18.12 81.9655 18.9093 81.8589 19.592C81.7735 20.2747 81.7095 20.744 81.6668 21C81.6455 21.256 81.5602 21.7787 81.4108 22.568C81.2615 23.3573 81.1015 24.1467 80.9308 24.936C80.7815 25.704 80.6855 26.1627 80.6428 26.312C80.6215 26.4613 80.4295 27.4213 80.0668 29.192C79.7042 30.9413 79.4268 32.0187 79.2348 32.424C79.0642 32.808 78.7548 33 78.3068 33C77.8802 33 77.5388 32.872 77.2828 32.616C76.3015 31.272 75.3735 29.608 74.4988 27.624C74.2855 27.112 74.0402 26.5573 73.7628 25.96C73.5068 25.3627 73.3148 24.9147 73.1868 24.616L72.8988 23.944C72.4508 24.712 71.8322 26.0133 71.0428 27.848C70.2535 29.6827 69.5602 31.1547 68.9628 32.264C68.5788 32.7547 68.1522 33 67.6828 33C66.7015 33 65.9548 30.3867 65.4428 25.16C65.4428 25.1387 65.4215 25.0213 65.3788 24.808C65.3575 24.5947 65.3148 24.2213 65.2508 23.688C65.2082 23.1547 65.1442 22.568 65.0588 21.928C64.9948 21.2667 64.7282 18.568 64.2588 13.832C64.2588 13.4053 64.4188 13.0213 64.7388 12.68C65.0588 12.3173 65.4108 12.136 65.7948 12.136C66.2642 12.136 66.5842 12.4453 66.7548 13.064C67.3308 19.9973 67.9068 25.1173 68.4828 28.424C68.6535 28.1253 69.0908 27.144 69.7948 25.48C70.4988 23.7947 71.1388 22.4613 71.7148 21.48C72.2908 20.4773 72.8455 19.976 73.3788 19.976C73.7415 19.976 74.0508 20.168 74.3068 20.552C75.6508 24.3707 76.8028 27.0587 77.7628 28.616C77.7842 28.3813 77.9122 27.7413 78.1468 26.696L78.5628 24.648C78.5628 24.52 78.5842 24.3387 78.6268 24.104C78.6908 23.8693 78.7335 23.6453 78.7548 23.432C78.7975 23.1973 78.8402 22.984 78.8828 22.792L79.2348 20.776C79.7468 17.6187 80.0668 15.0267 80.1948 13C80.2802 12.6373 80.4722 12.328 80.7708 12.072C81.0908 11.7947 81.4108 11.656 81.7309 11.656ZM91.2096 18.088C92.7456 18.088 94.0043 18.824 94.9856 20.296C95.9883 21.768 96.4896 23.5387 96.4896 25.608C96.4896 27.656 95.9776 29.4053 94.9536 30.856C93.9509 32.3067 92.6069 33.032 90.9216 33.032C89.2576 33.032 87.9136 32.296 86.8896 30.824C85.8656 29.3307 85.3536 27.6773 85.3536 25.864C85.3536 23.5387 85.8229 21.6827 86.7616 20.296C87.7643 18.824 89.2469 18.088 91.2096 18.088ZM90.8256 20.712C89.9296 20.712 89.1936 21.1813 88.6176 22.12C88.0416 23.0587 87.7536 24.0507 87.7536 25.096C87.7536 26.7173 88.0736 27.9547 88.7136 28.808C89.3536 29.6613 90.0789 30.088 90.8896 30.088C92.3403 30.088 93.2683 29.4587 93.6736 28.2C93.8443 27.6027 93.9296 26.856 93.9296 25.96C93.9296 22.4613 92.8949 20.712 90.8256 20.712ZM105.396 18.088C106.932 18.088 108.191 18.824 109.172 20.296C110.175 21.768 110.676 23.5387 110.676 25.608C110.676 27.656 110.164 29.4053 109.14 30.856C108.137 32.3067 106.793 33.032 105.108 33.032C103.444 33.032 102.1 32.296 101.076 30.824C100.052 29.3307 99.5399 27.6773 99.5399 25.864C99.5399 23.5387 100.009 21.6827 100.948 20.296C101.951 18.824 103.433 18.088 105.396 18.088ZM105.012 20.712C104.116 20.712 103.38 21.1813 102.804 22.12C102.228 23.0587 101.94 24.0507 101.94 25.096C101.94 26.7173 102.26 27.9547 102.9 28.808C103.54 29.6613 104.265 30.088 105.076 30.088C106.527 30.088 107.455 29.4587 107.86 28.2C108.031 27.6027 108.116 26.856 108.116 25.96C108.116 22.4613 107.081 20.712 105.012 20.712ZM121.566 18.024L121.534 11.848C121.534 10.696 121.897 10.12 122.622 10.12C123.369 10.12 123.785 10.44 123.87 11.08C123.913 11.3573 123.966 13.032 124.03 16.104C124.094 19.176 124.19 22.056 124.318 24.744C124.467 27.432 124.542 29.9387 124.542 32.264C124.542 32.904 124.062 33.224 123.102 33.224C122.462 33.224 122.142 32.776 122.142 31.88C121.225 32.6053 120.137 32.968 118.878 32.968C117.278 32.968 115.977 32.3707 114.974 31.176C113.993 29.9813 113.502 28.5093 113.502 26.76C113.502 25.0107 113.854 23.3787 114.558 21.864C115.283 20.328 116.403 19.2293 117.918 18.568C118.857 18.1627 119.763 17.96 120.638 17.96C120.958 17.96 121.267 17.9813 121.566 18.024ZM121.726 22.408C121.577 21.9387 121.395 21.5867 121.182 21.352C120.969 21.096 120.734 20.9467 120.478 20.904C120.243 20.84 119.955 20.808 119.614 20.808C119.273 20.808 118.857 20.936 118.366 21.192C117.875 21.448 117.459 21.864 117.118 22.44C116.435 23.592 116.094 24.808 116.094 26.088C116.094 27.3467 116.339 28.3813 116.83 29.192C117.342 29.9813 118.057 30.376 118.974 30.376C119.913 30.376 120.649 29.9173 121.182 29C121.715 28.0827 121.982 26.9093 121.982 25.48C121.982 23.88 121.897 22.856 121.726 22.408ZM142.867 11.688C143.379 11.688 143.71 12.0613 143.859 12.808C143.966 16.2853 144.019 20.0827 144.019 24.2C144.019 28.296 143.998 30.664 143.955 31.304C143.912 31.944 143.774 32.392 143.539 32.648C143.304 32.904 142.878 33.032 142.259 33.032C141.704 33.032 141.427 32.6907 141.427 32.008V24.776C141.427 23.6027 141.406 22.3973 141.363 21.16C141.32 19.9227 141.299 19.144 141.299 18.824C140.574 20.0613 139.614 21.0853 138.419 21.896C137.224 22.6853 135.891 23.08 134.419 23.08C132.947 23.08 131.71 22.472 130.707 21.256C130.664 22.5573 130.643 24.104 130.643 25.896C130.643 27.6667 130.654 29.5333 130.675 31.496C130.675 32.0293 130.494 32.424 130.131 32.68C129.79 32.9147 129.395 33.032 128.947 33.032C128.371 33.032 128.083 32.68 128.083 31.976C128.104 30.056 128.115 27.016 128.115 22.856V13.768C128.115 13.4053 128.232 13.0533 128.467 12.712C128.723 12.3707 129.011 12.2 129.331 12.2C129.672 12.2 129.982 12.296 130.259 12.488C130.536 12.6587 130.686 12.9253 130.707 13.288C130.792 15.656 131.176 17.416 131.859 18.568C132.542 19.72 133.352 20.296 134.291 20.296C135.23 20.296 136.03 20.1467 136.691 19.848C137.374 19.528 137.928 19.1653 138.355 18.76C138.803 18.3547 139.23 17.7787 139.635 17.032C140.211 15.9653 140.766 14.6533 141.299 13.096C141.619 12.1573 142.142 11.688 142.867 11.688ZM156.906 18.056C157.845 18.056 158.314 18.856 158.314 20.456C158.314 20.6267 158.314 20.808 158.314 21L158.25 23.24C158.229 23.944 158.218 24.6373 158.218 25.32L158.698 32.552C158.698 33.0853 158.154 33.352 157.066 33.352C157.002 33.352 156.842 33.352 156.586 33.352C156.351 33.352 156.181 33.256 156.074 33.064C155.989 32.872 155.978 32.6373 156.042 32.36C156.127 32.0827 156.106 31.7733 155.978 31.432C154.997 32.4773 153.695 33 152.074 33C149.066 33 147.562 30.6747 147.562 26.024C147.562 23.4427 148.042 21.4907 149.002 20.168C149.983 18.8453 151.381 18.184 153.194 18.184C154.047 18.184 154.901 18.3333 155.754 18.632C156.031 18.248 156.415 18.056 156.906 18.056ZM153.578 20.968C152.362 20.968 151.455 21.32 150.858 22.024C150.261 22.728 149.962 24.0187 149.962 25.896C149.962 29.0533 150.815 30.632 152.522 30.632C152.97 30.632 153.461 30.4293 153.994 30.024C154.549 29.6187 154.933 29.16 155.146 28.648C155.551 27.496 155.754 26.2373 155.754 24.872C155.754 23.5067 155.583 22.5147 155.242 21.896C154.922 21.2773 154.367 20.968 153.578 20.968ZM165.917 28.328L165.949 31.624C165.949 32.008 165.768 32.36 165.405 32.68C165.064 33 164.723 33.16 164.381 33.16C163.891 33.16 163.581 32.776 163.453 32.008C163.432 31.8373 163.347 30.28 163.197 27.336C163.048 24.3707 162.76 22.0453 162.333 20.36C162.141 19.5493 162.045 19.0693 162.045 18.92C162.045 18.216 162.472 17.864 163.325 17.864C163.688 17.864 163.976 18.0027 164.189 18.28C164.403 18.5573 164.531 18.8453 164.573 19.144C164.637 19.4213 164.691 19.8053 164.733 20.296C164.776 20.7867 164.808 21.096 164.829 21.224C165.277 20.1573 165.949 19.3573 166.845 18.824C167.741 18.2907 168.723 18.024 169.789 18.024C171.539 18.024 172.413 18.472 172.413 19.368C172.413 19.816 172.253 20.1787 171.933 20.456C171.635 20.712 171.283 20.84 170.877 20.84C169.064 20.84 167.784 21.416 167.037 22.568C166.291 23.72 165.917 25.64 165.917 28.328ZM176.182 18.056L177.782 18.088C178.145 18.088 178.347 18.0773 178.39 18.056V11.496C178.411 11.1333 178.593 10.824 178.934 10.568C179.275 10.312 179.595 10.184 179.894 10.184C180.193 10.184 180.427 10.28 180.598 10.472C180.79 10.664 180.875 10.9627 180.854 11.368C180.833 11.7733 180.822 13.992 180.822 18.024L184.566 17.896C185.206 17.896 185.526 18.2693 185.526 19.016C185.526 19.5707 185.355 19.9867 185.014 20.264C184.694 20.5413 184.342 20.6907 183.958 20.712C183.595 20.7333 183.233 20.744 182.87 20.744L180.918 20.712C180.918 21.5867 181.003 23.3147 181.174 25.896C181.366 28.4773 181.515 30.152 181.622 30.92C181.729 31.6667 181.75 32.1573 181.686 32.392C181.622 32.6053 181.505 32.7547 181.334 32.84C181.057 32.968 180.683 33.032 180.214 33.032C179.745 33.032 179.467 32.776 179.382 32.264C178.955 29.4693 178.667 25.6293 178.518 20.744C178.326 20.7653 177.59 20.776 176.31 20.776C175.03 20.776 174.39 20.4027 174.39 19.656C174.39 18.5893 174.987 18.056 176.182 18.056ZM189.87 29.16C190.339 29.16 190.745 29.3307 191.086 29.672C191.427 30.0133 191.63 30.4827 191.694 31.08C191.694 31.5493 191.523 31.9867 191.182 32.392C190.841 32.776 190.435 32.968 189.966 32.968C189.518 32.968 189.113 32.8507 188.75 32.616C188.387 32.36 188.206 31.976 188.206 31.464C188.206 30.952 188.366 30.44 188.686 29.928C189.027 29.416 189.422 29.16 189.87 29.16Z" fill="white"></path><path opacity="0.8" d="M68.0024 42.69C68.6558 42.69 69.2111 42.9 69.6684 43.32C70.5644 44.1227 71.0124 45.392 71.0124 47.128C71.0124 48.8547 70.5178 50.2127 69.5284 51.202C69.0151 51.6967 68.4224 51.9673 67.7504 52.014C66.8638 52.014 66.1731 51.7107 65.6784 51.104C65.1838 50.4973 64.8291 49.8207 64.6144 49.074C64.4091 48.318 64.3064 47.59 64.3064 46.89C64.3064 45.6953 64.5911 44.7107 65.1604 43.936C65.7578 43.1053 66.7051 42.69 68.0024 42.69ZM67.9044 43.852C66.6538 43.852 65.8744 44.4447 65.5664 45.63C65.4731 45.9473 65.4264 46.3533 65.4264 46.848C65.4264 47.3427 65.5198 47.9167 65.7064 48.57C65.9584 49.4473 66.3318 50.0633 66.8264 50.418C67.1158 50.642 67.4658 50.754 67.8764 50.754C68.2871 50.754 68.6558 50.572 68.9824 50.208C69.3091 49.8347 69.5331 49.3633 69.6544 48.794C69.7758 48.2247 69.8364 47.6507 69.8364 47.072C69.8364 46.0453 69.6871 45.252 69.3884 44.692C69.0991 44.132 68.6044 43.852 67.9044 43.852ZM73.8357 49.956L73.8497 51.398C73.8497 51.566 73.7704 51.72 73.6117 51.86C73.4624 52 73.3131 52.07 73.1637 52.07C72.9491 52.07 72.8137 51.902 72.7577 51.566C72.7484 51.4913 72.7111 50.81 72.6457 49.522C72.5804 48.2247 72.4544 47.2073 72.2677 46.47C72.1837 46.1153 72.1417 45.9053 72.1417 45.84C72.1417 45.532 72.3284 45.378 72.7017 45.378C72.8604 45.378 72.9864 45.4387 73.0797 45.56C73.1731 45.6813 73.2291 45.8073 73.2477 45.938C73.2757 46.0593 73.2991 46.2273 73.3177 46.442C73.3364 46.6567 73.3504 46.792 73.3597 46.848C73.5557 46.3813 73.8497 46.0313 74.2417 45.798C74.6337 45.5647 75.0631 45.448 75.5297 45.448C76.2951 45.448 76.6777 45.644 76.6777 46.036C76.6777 46.232 76.6077 46.3907 76.4677 46.512C76.3371 46.624 76.1831 46.68 76.0057 46.68C75.2124 46.68 74.6524 46.932 74.3257 47.436C73.9991 47.94 73.8357 48.78 73.8357 49.956ZM81.4344 51.426C81.0984 51.818 80.6738 52.014 80.1604 52.014C79.6471 52.014 79.2038 51.8553 78.8304 51.538C78.0464 50.9313 77.6544 50.0027 77.6544 48.752C77.6544 47.772 77.9251 46.988 78.4664 46.4C79.0078 45.8027 79.6751 45.504 80.4684 45.504C81.2618 45.504 81.8031 45.7747 82.0924 46.316C82.3444 46.792 82.4704 47.5107 82.4704 48.472L82.4424 49.62C82.4424 50.1613 82.4658 50.9127 82.5124 51.874C82.5684 52.826 82.5964 53.5447 82.5964 54.03C82.5964 54.8327 82.3958 55.4207 81.9944 55.794C81.6024 56.1767 81.0004 56.368 80.1884 56.368C79.7031 56.368 79.2084 56.2653 78.7044 56.06C78.2004 55.8547 77.9484 55.6167 77.9484 55.346C77.9484 55.15 77.9998 55.0007 78.1024 54.898C78.2144 54.7953 78.3404 54.744 78.4804 54.744C78.6204 54.744 78.9331 54.8467 79.4184 55.052C79.9131 55.2573 80.2678 55.36 80.4824 55.36C81.1544 55.36 81.4904 54.8093 81.4904 53.708C81.4904 52.6067 81.4718 51.846 81.4344 51.426ZM81.4204 48.472C81.4204 47.7907 81.3178 47.3147 81.1124 47.044C80.9164 46.764 80.6038 46.624 80.1744 46.624C79.7451 46.624 79.3998 46.82 79.1384 47.212C78.8771 47.604 78.7464 48.1033 78.7464 48.71C78.7464 49.3073 78.8678 49.7833 79.1104 50.138C79.3624 50.4927 79.7451 50.67 80.2584 50.67C80.7718 50.67 81.1031 50.4507 81.2524 50.012C81.3644 49.6573 81.4204 49.144 81.4204 48.472ZM87.5568 45.462C87.9675 45.462 88.1728 45.812 88.1728 46.512C88.1728 46.5867 88.1728 46.666 88.1728 46.75L88.1448 47.73C88.1355 48.038 88.1308 48.3413 88.1308 48.64L88.3408 51.804C88.3408 52.0373 88.1028 52.154 87.6268 52.154C87.5988 52.154 87.5288 52.154 87.4168 52.154C87.3142 52.154 87.2395 52.112 87.1928 52.028C87.1555 51.944 87.1508 51.8413 87.1788 51.72C87.2162 51.5987 87.2068 51.4633 87.1508 51.314C86.7215 51.7713 86.1522 52 85.4428 52C84.1268 52 83.4688 50.9827 83.4688 48.948C83.4688 47.8187 83.6788 46.9647 84.0988 46.386C84.5282 45.8073 85.1395 45.518 85.9328 45.518C86.3062 45.518 86.6795 45.5833 87.0528 45.714C87.1742 45.546 87.3422 45.462 87.5568 45.462ZM86.1008 46.736C85.5688 46.736 85.1722 46.89 84.9108 47.198C84.6495 47.506 84.5188 48.0707 84.5188 48.892C84.5188 50.2733 84.8922 50.964 85.6388 50.964C85.8348 50.964 86.0495 50.8753 86.2828 50.698C86.5255 50.5207 86.6935 50.32 86.7868 50.096C86.9642 49.592 87.0528 49.0413 87.0528 48.444C87.0528 47.8467 86.9782 47.4127 86.8288 47.142C86.6888 46.8713 86.4462 46.736 86.1008 46.736ZM89.6652 51.566L89.5112 45.882C89.5112 45.7047 89.5719 45.56 89.6932 45.448C89.8146 45.336 89.9359 45.28 90.0572 45.28C90.3559 45.28 90.5286 45.406 90.5752 45.658C90.6126 45.91 90.6312 46.1713 90.6312 46.442C91.1352 45.7793 91.7652 45.448 92.5212 45.448C93.6786 45.448 94.2572 46.7687 94.2572 49.41C94.2572 49.6527 94.2572 50.0213 94.2572 50.516C94.2572 51.0013 94.2292 51.356 94.1732 51.58C94.1079 51.86 93.9072 52 93.5712 52C93.3472 52 93.2352 51.8507 93.2352 51.552L93.2492 50.768C93.2492 49.6853 93.2119 48.948 93.1372 48.556C93.0719 48.1547 93.0066 47.8373 92.9412 47.604C92.7826 47.1 92.5259 46.848 92.1712 46.848C91.7046 46.848 91.3779 47.016 91.1912 47.352C90.9859 47.716 90.8646 48.1453 90.8272 48.64C90.7619 49.508 90.7292 50.4273 90.7292 51.398C90.7292 51.5847 90.6592 51.734 90.5192 51.846C90.3792 51.958 90.2112 52.014 90.0152 52.014C89.7819 52.014 89.6652 51.8647 89.6652 51.566ZM96.3873 43.152C96.5553 43.152 96.714 43.2313 96.8633 43.39C97.0127 43.5487 97.0873 43.7167 97.0873 43.894C97.0873 44.062 97.0033 44.2347 96.8353 44.412C96.6767 44.5893 96.5087 44.678 96.3313 44.678C96.154 44.678 95.9907 44.6033 95.8413 44.454C95.7013 44.3047 95.6313 44.1133 95.6313 43.88C95.6313 43.432 95.874 43.1893 96.3593 43.152C96.3687 43.152 96.378 43.152 96.3873 43.152ZM96.9753 50.488L96.9893 51.468C96.9893 51.6453 96.9193 51.7947 96.7793 51.916C96.6393 52.028 96.49 52.084 96.3313 52.084C96.098 52.084 95.9767 51.9673 95.9673 51.734C95.846 48.7567 95.7853 47.1093 95.7853 46.792C95.7853 46.4747 95.7993 46.0873 95.8273 45.63C95.846 45.462 95.9533 45.378 96.1493 45.378C96.644 45.378 96.924 45.5787 96.9893 45.98C97.0173 46.1853 97.0313 46.3487 97.0313 46.47L96.9753 47.352V50.488ZM98.3982 48.724C98.3982 48.0987 98.5615 47.5293 98.8882 47.016C99.2242 46.5027 99.6488 46.12 100.162 45.868C100.676 45.6067 101.175 45.476 101.66 45.476C102.146 45.476 102.533 45.5367 102.822 45.658C103.121 45.77 103.27 45.924 103.27 46.12C103.27 46.3067 103.214 46.498 103.102 46.694C103 46.8807 102.86 46.974 102.682 46.974C102.617 46.974 102.435 46.9227 102.136 46.82C101.847 46.708 101.66 46.652 101.576 46.652C101.035 46.652 100.573 46.8527 100.19 47.254C99.8075 47.646 99.6162 48.1687 99.6162 48.822C99.6162 49.4753 99.7188 49.9653 99.9242 50.292C100.139 50.6093 100.503 50.768 101.016 50.768C101.222 50.768 101.572 50.6513 102.066 50.418C102.57 50.1753 102.883 50.054 103.004 50.054C103.126 50.054 103.224 50.0913 103.298 50.166C103.373 50.2407 103.41 50.334 103.41 50.446C103.41 50.67 103.266 50.908 102.976 51.16C102.696 51.4027 102.346 51.608 101.926 51.776C101.506 51.9347 101.128 52.014 100.792 52.014C100.046 52.014 99.4575 51.72 99.0282 51.132C98.6082 50.544 98.3982 49.7413 98.3982 48.724ZM109.488 51.972L107.682 51.93C107.58 51.538 107.519 49.774 107.5 46.638V45.644C107.5 44.8507 107.575 44.2487 107.724 43.838C107.874 43.418 108.186 43.082 108.662 42.83C108.905 42.7087 109.241 42.648 109.67 42.648C110.109 42.648 110.445 42.676 110.678 42.732C111.304 42.8627 111.728 43.1053 111.952 43.46C112.186 43.8147 112.302 44.2907 112.302 44.888C112.302 45.7187 112.083 46.33 111.644 46.722C111.868 46.75 112.092 46.862 112.316 47.058C112.54 47.254 112.722 47.4547 112.862 47.66C113.105 48.0333 113.226 48.542 113.226 49.186C113.226 50.194 112.918 50.9127 112.302 51.342C111.696 51.762 110.758 51.972 109.488 51.972ZM108.62 45.154L108.648 46.75C108.667 46.75 108.826 46.7313 109.124 46.694C109.423 46.6473 109.675 46.6007 109.88 46.554C110.823 46.33 111.294 45.7933 111.294 44.944C111.294 44.524 111.168 44.216 110.916 44.02C110.674 43.824 110.352 43.726 109.95 43.726C109.446 43.726 109.106 43.8147 108.928 43.992C108.854 44.0667 108.793 44.132 108.746 44.188C108.7 44.2347 108.667 44.314 108.648 44.426C108.63 44.538 108.616 44.6173 108.606 44.664C108.606 44.7107 108.606 44.7993 108.606 44.93C108.616 45.0607 108.62 45.1353 108.62 45.154ZM111.77 48.136C111.677 48.0333 111.532 47.94 111.336 47.856C111.14 47.772 110.856 47.73 110.482 47.73C110.118 47.73 109.493 47.7907 108.606 47.912C108.606 49.368 108.63 50.3527 108.676 50.866C109.768 50.866 110.534 50.796 110.972 50.656C111.411 50.5067 111.705 50.3293 111.854 50.124C112.013 49.9093 112.092 49.6853 112.092 49.452C112.092 49.2093 112.088 49.0413 112.078 48.948C112.078 48.8453 112.05 48.71 111.994 48.542C111.948 48.3647 111.873 48.2293 111.77 48.136ZM118.25 45.462C118.661 45.462 118.866 45.812 118.866 46.512C118.866 46.5867 118.866 46.666 118.866 46.75L118.838 47.73C118.829 48.038 118.824 48.3413 118.824 48.64L119.034 51.804C119.034 52.0373 118.796 52.154 118.32 52.154C118.292 52.154 118.222 52.154 118.11 52.154C118.008 52.154 117.933 52.112 117.886 52.028C117.849 51.944 117.844 51.8413 117.872 51.72C117.91 51.5987 117.9 51.4633 117.844 51.314C117.415 51.7713 116.846 52 116.136 52C114.82 52 114.162 50.9827 114.162 48.948C114.162 47.8187 114.372 46.9647 114.792 46.386C115.222 45.8073 115.833 45.518 116.626 45.518C117 45.518 117.373 45.5833 117.746 45.714C117.868 45.546 118.036 45.462 118.25 45.462ZM116.794 46.736C116.262 46.736 115.866 46.89 115.604 47.198C115.343 47.506 115.212 48.0707 115.212 48.892C115.212 50.2733 115.586 50.964 116.332 50.964C116.528 50.964 116.743 50.8753 116.976 50.698C117.219 50.5207 117.387 50.32 117.48 50.096C117.658 49.592 117.746 49.0413 117.746 48.444C117.746 47.8467 117.672 47.4127 117.522 47.142C117.382 46.8713 117.14 46.736 116.794 46.736ZM119.855 42.536C119.855 42.1627 120.088 41.976 120.555 41.976C120.769 41.976 120.895 42.1067 120.933 42.368V44.468C120.933 44.86 120.937 45.252 120.947 45.644C121.133 45.588 121.371 45.56 121.661 45.56C122.566 45.56 123.266 45.8633 123.761 46.47C124.255 47.0767 124.503 47.8373 124.503 48.752C124.503 49.6667 124.209 50.4413 123.621 51.076C123.042 51.7013 122.295 52.014 121.381 52.014C120.466 52.014 120.009 51.7573 120.009 51.244C120.009 50.7213 119.981 49.4053 119.925 47.296C119.878 45.1773 119.855 43.5907 119.855 42.536ZM122.683 47.044C122.347 46.7827 121.992 46.652 121.619 46.652C121.413 46.652 121.203 46.6893 120.989 46.764C121.045 47.5293 121.073 48.8873 121.073 50.838C121.231 50.894 121.395 50.922 121.563 50.922C121.927 50.922 122.291 50.7867 122.655 50.516C123.196 50.1427 123.467 49.5733 123.467 48.808C123.467 48.0333 123.205 47.4453 122.683 47.044ZM130.062 45.532C130.183 45.532 130.3 45.574 130.412 45.658C130.533 45.742 130.594 45.8353 130.594 45.938C130.594 46.2087 130.197 47.674 129.404 50.334C128.611 52.994 128.023 54.8607 127.64 55.934C127.556 56.186 127.425 56.312 127.248 56.312C127.071 56.312 126.931 56.2467 126.828 56.116C126.725 55.9947 126.674 55.8127 126.674 55.57C126.674 55.3273 126.828 54.744 127.136 53.82C127.453 52.9053 127.645 52.322 127.71 52.07C127.477 51.678 126.688 49.718 125.344 46.19C125.325 46.1433 125.316 46.0827 125.316 46.008C125.316 45.9333 125.372 45.8353 125.484 45.714C125.596 45.5927 125.75 45.532 125.946 45.532C126.142 45.532 126.301 45.63 126.422 45.826C126.553 46.162 126.767 46.75 127.066 47.59C127.365 48.4207 127.593 49.0227 127.752 49.396C127.92 49.7693 128.079 50.1567 128.228 50.558C128.359 50.1193 128.583 49.27 128.9 48.01C129.217 46.7407 129.399 46.0173 129.446 45.84C129.483 45.6347 129.689 45.532 130.062 45.532ZM138.915 42.844C139.54 42.844 140.231 42.9653 140.987 43.208C141.155 43.3387 141.239 43.4833 141.239 43.642C141.239 43.7913 141.159 43.9267 141.001 44.048C140.851 44.16 140.679 44.216 140.483 44.216C139.979 44.0853 139.507 44.02 139.069 44.02C138.061 44.02 137.295 44.3187 136.773 44.916C136.25 45.5133 135.989 46.4 135.989 47.576C135.989 48.752 136.297 49.6713 136.913 50.334C137.23 50.6793 137.608 50.852 138.047 50.852C138.485 50.852 139.185 50.6187 140.147 50.152C140.483 49.9933 140.707 49.914 140.819 49.914C141.061 49.914 141.183 50.04 141.183 50.292C141.183 50.544 141.066 50.754 140.833 50.922C140.03 51.342 139.405 51.6267 138.957 51.776C138.509 51.916 138.121 51.986 137.795 51.986C137.123 51.986 136.549 51.7387 136.073 51.244C135.223 50.3293 134.799 49.0833 134.799 47.506C134.799 45.9193 135.2 44.748 136.003 43.992C136.815 43.2267 137.785 42.844 138.915 42.844ZM142.371 42.942C142.399 42.5873 142.455 42.3587 142.539 42.256C142.632 42.144 142.777 42.088 142.973 42.088C143.374 42.088 143.575 42.2513 143.575 42.578C143.575 42.83 143.551 43.488 143.505 44.552C143.467 45.616 143.449 46.568 143.449 47.408C143.449 48.248 143.481 48.9247 143.547 49.438C143.659 50.334 143.817 50.782 144.023 50.782C144.228 50.782 144.382 50.6373 144.485 50.348C144.531 50.236 144.606 50.138 144.709 50.054C144.811 49.9607 144.942 49.914 145.101 49.914C145.427 49.914 145.591 50.1893 145.591 50.74C145.591 51.0387 145.427 51.3373 145.101 51.636C144.783 51.9253 144.466 52.07 144.149 52.07C143.831 52.07 143.575 52.0187 143.379 51.916C143.192 51.804 143.038 51.6407 142.917 51.426C142.805 51.2113 142.711 51.006 142.637 50.81C142.571 50.6047 142.525 50.3573 142.497 50.068C142.441 49.6013 142.399 48.8547 142.371 47.828C142.352 46.792 142.343 45.8073 142.343 44.874C142.343 43.9313 142.352 43.2873 142.371 42.942ZM148.609 45.476C149.281 45.476 149.832 45.798 150.261 46.442C150.7 47.086 150.919 47.8607 150.919 48.766C150.919 49.662 150.695 50.4273 150.247 51.062C149.809 51.6967 149.221 52.014 148.483 52.014C147.755 52.014 147.167 51.692 146.719 51.048C146.271 50.3947 146.047 49.6713 146.047 48.878C146.047 47.8607 146.253 47.0487 146.663 46.442C147.102 45.798 147.751 45.476 148.609 45.476ZM148.441 46.624C148.049 46.624 147.727 46.8293 147.475 47.24C147.223 47.6507 147.097 48.0847 147.097 48.542C147.097 49.2513 147.237 49.7927 147.517 50.166C147.797 50.5393 148.115 50.726 148.469 50.726C149.104 50.726 149.51 50.4507 149.687 49.9C149.762 49.6387 149.799 49.312 149.799 48.92C149.799 47.3893 149.347 46.624 148.441 46.624ZM152.128 45.462L152.828 45.476C152.986 45.476 153.075 45.4713 153.094 45.462V42.592C153.103 42.4333 153.182 42.298 153.332 42.186C153.481 42.074 153.621 42.018 153.752 42.018C153.882 42.018 153.985 42.06 154.06 42.144C154.144 42.228 154.181 42.3587 154.172 42.536C154.162 42.7133 154.158 43.684 154.158 45.448L155.796 45.392C156.076 45.392 156.216 45.5553 156.216 45.882C156.216 46.1247 156.141 46.3067 155.992 46.428C155.852 46.5493 155.698 46.6147 155.53 46.624C155.371 46.6333 155.212 46.638 155.054 46.638L154.2 46.624C154.2 47.0067 154.237 47.7627 154.312 48.892C154.396 50.0213 154.461 50.754 154.508 51.09C154.554 51.4167 154.564 51.6313 154.536 51.734C154.508 51.8273 154.456 51.8927 154.382 51.93C154.26 51.986 154.097 52.014 153.892 52.014C153.686 52.014 153.565 51.902 153.528 51.678C153.341 50.4553 153.215 48.7753 153.15 46.638C153.066 46.6473 152.744 46.652 152.184 46.652C151.624 46.652 151.344 46.4887 151.344 46.162C151.344 45.6953 151.605 45.462 152.128 45.462ZM158.088 47.464L158.2 50.768C158.2 51.1787 158.182 51.4167 158.144 51.482C158.126 51.65 158.07 51.7807 157.976 51.874C157.892 51.9673 157.724 52.014 157.472 52.014C157.351 52.014 157.253 51.9393 157.178 51.79C157.104 51.6313 157.062 51.454 157.052 51.258C156.987 49.6153 156.898 48.0753 156.786 46.638C156.684 45.1913 156.632 43.8473 156.632 42.606C156.632 42.41 156.698 42.256 156.828 42.144C156.959 42.032 157.113 41.976 157.29 41.976C157.552 41.976 157.706 42.2 157.752 42.648C157.808 43.096 157.841 43.656 157.85 44.328C157.869 45 157.888 45.49 157.906 45.798C158.373 45.5553 158.84 45.434 159.306 45.434C160.389 45.434 161.075 45.91 161.364 46.862C161.532 47.4033 161.616 48.0987 161.616 48.948C161.616 49.228 161.588 49.6713 161.532 50.278C161.486 50.8753 161.458 51.2627 161.448 51.44C161.439 51.6173 161.36 51.7573 161.21 51.86C161.07 51.9533 160.916 52 160.748 52C160.487 52 160.356 51.86 160.356 51.58L160.454 49.144C160.454 48.9387 160.445 48.598 160.426 48.122C160.408 47.646 160.31 47.268 160.132 46.988C159.964 46.708 159.666 46.568 159.236 46.568C158.471 46.568 158.088 46.8667 158.088 47.464ZM164.485 45.518C164.98 45.518 165.451 45.6627 165.899 45.952C166.347 46.2413 166.571 46.6007 166.571 47.03C166.571 47.45 166.389 47.8607 166.025 48.262C165.661 48.654 165.176 48.892 164.569 48.976C164.308 49.0133 163.916 49.032 163.393 49.032C163.496 49.8253 163.697 50.348 163.995 50.6C164.089 50.7027 164.215 50.754 164.373 50.754C164.952 50.754 165.437 50.572 165.829 50.208C166.221 49.8347 166.501 49.648 166.669 49.648C166.744 49.648 166.856 49.718 167.005 49.858C167.155 49.998 167.229 50.1287 167.229 50.25C167.229 50.4927 166.935 50.8427 166.347 51.3C166.086 51.5147 165.769 51.6967 165.395 51.846C165.031 51.986 164.691 52.056 164.373 52.056C163.561 52.056 162.964 51.5333 162.581 50.488C162.339 49.844 162.217 49.1347 162.217 48.36C162.217 47.5853 162.399 46.918 162.763 46.358C163.127 45.798 163.701 45.518 164.485 45.518ZM164.555 46.484C164.201 46.484 163.897 46.6847 163.645 47.086C163.552 47.226 163.463 47.5433 163.379 48.038C164.686 48.038 165.339 47.716 165.339 47.072C165.339 46.68 165.078 46.484 164.555 46.484ZM168.285 47.24C168.285 46.6893 168.481 46.2507 168.873 45.924C169.265 45.5973 169.718 45.434 170.231 45.434C170.754 45.434 171.253 45.5273 171.729 45.714C172.205 45.9007 172.443 46.148 172.443 46.456C172.443 46.6147 172.383 46.7407 172.261 46.834C172.14 46.9273 172.033 46.974 171.939 46.974C171.855 46.974 171.785 46.974 171.729 46.974C171.683 46.9647 171.496 46.876 171.169 46.708C170.852 46.54 170.558 46.456 170.287 46.456C170.017 46.456 169.783 46.526 169.587 46.666C169.401 46.7967 169.307 46.9927 169.307 47.254C169.307 47.5153 169.415 47.7207 169.629 47.87C169.853 48.0193 170.241 48.15 170.791 48.262C171.342 48.3647 171.762 48.514 172.051 48.71C172.35 48.906 172.499 49.27 172.499 49.802C172.499 50.5767 172.294 51.1273 171.883 51.454C171.482 51.7713 170.992 51.93 170.413 51.93C169.835 51.93 169.34 51.8507 168.929 51.692C168.528 51.5333 168.327 51.2953 168.327 50.978C168.327 50.614 168.509 50.432 168.873 50.432C168.967 50.432 169.172 50.4973 169.489 50.628C169.807 50.7587 170.119 50.824 170.427 50.824C170.745 50.824 170.983 50.726 171.141 50.53C171.309 50.3247 171.393 50.0913 171.393 49.83C171.393 49.5687 171.286 49.382 171.071 49.27C170.857 49.1487 170.53 49.0507 170.091 48.976C169.653 48.9013 169.331 48.822 169.125 48.738C168.565 48.514 168.285 48.0147 168.285 47.24Z" fill="white"></path><defs><clipPath id="clip0_13175_26750"><rect width="53.3102" height="48" fill="white" transform="translate(0 2)"></rect></clipPath></defs></svg> 